<svg id="Ebene_1" data-name="Ebene 1" xmlns="http://www.w3.org/2000/svg" viewBox="0 0 283.46 283.46"><path d="M282.53,141.71c0,1.32.78.84.93,1C283.23,140.54,282.32,141.77,282.53,141.71Z" transform="translate(0 0)"/><polygon points="278.88 120.42 279.27 120.74 277.9 117.78 278.88 120.42"/><path d="M276.83,111.46l-.18.64,1.47,1.33c-.6-2.1-1.31-4.5-2.11-6.7a37.61,37.61,0,0,1-1.72-5.78C273.45,103.16,276.61,107.82,276.83,111.46Z" transform="translate(0 0)"/><path d="M274.28,91.72a16.87,16.87,0,0,1-.78-1.94c-.26.82-1.31-2,.78,2.42A3.84,3.84,0,0,1,274.28,91.72Z" transform="translate(0 0)"/><path d="M271.68,85.08c.05-.67-.94-3-.33-2.25-1.46-2.55-1.5-1.82-1.29-.13Z" transform="translate(0 0)"/><path d="M268,80.72c.3.4.57.81.83,1.22C268.83,81.65,268.72,81.27,268,80.72Z" transform="translate(0 0)"/><path d="M270.49,84.58l-1.68-2.64c0,.47-.44.7.73,1.23C269.06,83.12,269.67,83.5,270.49,84.58Z" transform="translate(0 0)"/><path d="M271,86.27c.39,1.55.94,3.52-.58,1.11C272.62,92.27,273.31,91.17,271,86.27Z" transform="translate(0 0)"/><path d="M273.75,104.08c-.44-.79-.75-3.92-1.18-3.66.1.69.19,1.38.24,2.09Z" transform="translate(0 0)"/><path d="M262.23,66.83c-.35,0-.16,1.23-.38,1.61.49.51.93,1.06,1.38,1.61C262.89,69,261.93,67.19,262.23,66.83Z" transform="translate(0 0)"/><path d="M261.85,68.44l-2.12-2.35C261.18,68.46,261.67,68.76,261.85,68.44Z" transform="translate(0 0)"/><path d="M269.48,85.13c-1.17-1.69-2.3-3.38-3.58-5l.46.88C267.49,82.33,268.43,83.75,269.48,85.13Z" transform="translate(0 0)"/><path d="M257.06,57.9c-.89-.67-1.81-1.31-2.75-1.92l1.14.92Z" transform="translate(0 0)"/><path d="M251.11,49.59A23.86,23.86,0,0,0,246.56,46a17.29,17.29,0,0,1,3.81,4.74C251.68,51.39,249.92,48.75,251.11,49.59Z" transform="translate(0 0)"/><path d="M244.15,44.4c.71.54,1.52,1,2.41,1.58A15.39,15.39,0,0,0,244.15,44.4Z" transform="translate(0 0)"/><path d="M256.15,59.12v1.49l.74,1A4.1,4.1,0,0,0,256.15,59.12Z" transform="translate(0 0)"/><path d="M257.06,61.87l-.17-.26C256.89,61.76,256.9,61.83,257.06,61.87Z" transform="translate(0 0)"/><path d="M260.79,72.66c1.15.83.45-1.19,2.44.82C261.9,72.13,259.59,69.15,260.79,72.66Z" transform="translate(0 0)"/><path d="M259.5,66.33c-.81-.88-1.59-1.78-2.43-2.63.59.92,1.09,1.9,1.64,2.85C258.86,66.37,258.81,65.7,259.5,66.33Z" transform="translate(0 0)"/><polygon points="255.91 62.54 257.06 63.7 256.42 62.67 255.91 62.54"/><path d="M247.42,49.12a36,36,0,0,1-3.55-3.21c1.22,1.46,2.43,3,3.64,4.39C247.88,50.33,248.78,50.64,247.42,49.12Z" transform="translate(0 0)"/><path d="M251.77,54.67l-.23-.22C251.6,54.64,251.68,54.78,251.77,54.67Z" transform="translate(0 0)"/><path d="M247.6,50.65a6.62,6.62,0,0,0,2.25,2.12c-.76-.75-1.54-1.56-2.34-2.47C247.34,50.29,247.27,50.33,247.6,50.65Z" transform="translate(0 0)"/><path d="M240.44,41.19l1.43,2.07C241.58,42.54,240.8,41.21,240.44,41.19Z" transform="translate(0 0)"/><path d="M251.42,53.93l.16.14C251.44,53.59,251.4,53.69,251.42,53.93Z" transform="translate(0 0)"/><path d="M251.54,54.45a2.31,2.31,0,0,1-.12-.52,11.16,11.16,0,0,0-1.57-1.16C250.44,53.4,251,54,251.54,54.45Z" transform="translate(0 0)"/><path d="M221.21,32.76c1.11.55,2.16,1.19,3.23,1.81-.08.19-1.35-.35-.67.44.63-.45,4,1.13,5.83,3.87,2.71,1.56,2.92-1.65,1.73-4.57-.3.21-.46.38-3.32-1.24.69,1,4.86,5.35,2.34,4.12-3.47-2.46-2.52-2.4-3.87-4C227.26,35,221.35,31,221.21,32.76Z" transform="translate(0 0)"/><path d="M236.38,38.68l-.37-.24,1,.86a31.29,31.29,0,0,1-2.77-3.9c-2-1.17-2.49-1.26-2.78-1.16l-.24-.23.11.3.13-.07C233.1,35.72,234.79,37.15,236.38,38.68Z" transform="translate(0 0)"/><path d="M241.37,43.48c-1.31-.19-3.92-2.08-3.13-.1,2.81,2.68,2.41,1.45,4.31,2.86-4.52-4.42,1.61,1-1.22-2.65a33.5,33.5,0,0,1,2.54,2.32c-.71-.9-1.39-1.78-2-2.65l.06.13c-1.56-1.42-3.26-2.7-4.87-4.06C237.91,40.33,239.19,41.42,241.37,43.48Zm.47,0H242c.1.24.12.34,0,.09l-.1-.09a.79.79,0,0,1-.43,0C240.26,42,241.41,43.06,241.84,43.43Z" transform="translate(0 0)"/><path d="M257.51,70.75c0-.2,0-.22.06-.27C257.27,70.2,257.13,70.11,257.51,70.75Z" transform="translate(0 0)"/><path d="M257.57,70.48c.68.62,2.17,2.31,1.05-.26l-.34-.31a22.12,22.12,0,0,1-1.7-5,8.74,8.74,0,0,0,0,3.38,4.56,4.56,0,0,1,1.56,1.73C258.6,71.28,257.78,70.28,257.57,70.48Z" transform="translate(0 0)"/><path d="M256.58,65a3,3,0,0,1,.06-.32C256.55,64.57,256.54,64.7,256.58,65Z" transform="translate(0 0)"/><path d="M245.71,51.86l1.18,2.48.25-.39c1.76,2.38,1.74,1.58,2.25,1.64C248.23,54.29,247,53.09,245.71,51.86Z" transform="translate(0 0)"/><path d="M232.12,33.06c-1-.37-2.15-.64-3.21-1l2.1,1.18Z" transform="translate(0 0)"/><path d="M226.18,28.64c-.58-.25-1.19-.47-1.77-.7l1.1,1.16Z" transform="translate(0 0)"/><path d="M20.87,200.81l-.46-.06C20.83,201.09,21.06,201.2,20.87,200.81Z" transform="translate(0 0)"/><path d="M61.9,24.18a14.23,14.23,0,0,1,3.32-2c-2.3.6-5.1,1.05-4.38,1.63Z" transform="translate(0 0)"/><path d="M5.4,113.68c0,.66,0,1.4.1,2.19.12-.19.24-.39.37-.58C5.7,114.71,5.54,114.17,5.4,113.68Z" transform="translate(0 0)"/><path d="M8.72,118l-1.05,2.68A18.17,18.17,0,0,0,8.72,118Z" transform="translate(0 0)"/><path d="M65.59,251c.62.09,1.24.17,1.88.22C65.29,249.78,66,250.77,65.59,251Z" transform="translate(0 0)"/><path d="M160.44,2.68a36.08,36.08,0,0,0-4.81-1.12C157.94,2.34,159.72,3.31,160.44,2.68Z" transform="translate(0 0)"/><path d="M15.82,210.87c.61.75,1,1,1.12.9C16.32,211,15.9,210.59,15.82,210.87Z" transform="translate(0 0)"/><path d="M155.6,1.56a10.9,10.9,0,0,0-5.66-.48c.34.12.68.19,1,.28A25.9,25.9,0,0,1,155.6,1.56Z" transform="translate(0 0)"/><path d="M250.19,216.56c.11-.1.22-.25.34-.34C250.46,216.12,250.34,216.29,250.19,216.56Z" transform="translate(0 0)"/><path d="M280,164.13a15.3,15.3,0,0,0,.24-2C280.14,162.71,280,163.43,280,164.13Z" transform="translate(0 0)"/><path d="M205.88,20.72a1,1,0,0,1,.71-.11C206.27,20.56,206,20.56,205.88,20.72Z" transform="translate(0 0)"/><path d="M202.06,14.67c.24.19.71.53,1.56,1.08A16.66,16.66,0,0,0,202.06,14.67Z" transform="translate(0 0)"/><path d="M203.54,15.25l1.11.66C204.88,15.86,204.77,15.71,203.54,15.25Z" transform="translate(0 0)"/><path d="M201.81,14.41l-1.89-.8c.73.32,1.44.67,2.14,1.06C201.82,14.5,201.73,14.4,201.81,14.41Z" transform="translate(0 0)"/><path d="M158.22,275.87c1.34-.53.79-.4-.31-.05A.72.72,0,0,1,158.22,275.87Z" transform="translate(0 0)"/><path d="M42.29,52.38a.64.64,0,0,0,.08-.14l-.16.13Z" transform="translate(0 0)"/><path d="M39.49,56.48a6.38,6.38,0,0,1,2.72-4.11l-3-.46Z" transform="translate(0 0)"/><path d="M280.66,151.19c.14-2.06.12-4.12-.47-4.55l.16,2.56c-.7-1.73-1.53-.56-2.47.92s-2.05,3.27-3,2.95a6.16,6.16,0,0,1,.12,3.19,35.54,35.54,0,0,1-1.2,3.75c-.81,2.64-1.8,5.47-1.15,8.65-.62,1.24-.4-1.23-1-.61.57,1.65.27,3.49-.84,6.73l-.11-.43a51.56,51.56,0,0,1-1.67,6.11,45.57,45.57,0,0,1-1.9,5.08c-.67,1.64-1.37,3.32-2.3,5.14s-1.81,3.9-3.08,6.25l1.18-.35a15.84,15.84,0,0,1-2.19,3.25c.19,3,2.74-5.85,3.18-3a9.67,9.67,0,0,0-2.37,3.19c-.82,1.49-1.8,3.24-2.71,5-1.88,3.46-3.91,6.71-5.38,7-1.92,3,1.49-.3-.44,2.66l-1,.48.15,1.16c-1.36,1.9-2.72,2.38-3.15,2.18a15.61,15.61,0,0,0,1.13-1.88,20.61,20.61,0,0,0-3.31,4.34,23.09,23.09,0,0,1-2.3,3.26l2.37-2.44c-5.31,8.1-14,16.08-20.4,22.94l.83-.13a20.35,20.35,0,0,1-5,4.2,56.85,56.85,0,0,0-5.84,4l.17-.25a17.31,17.31,0,0,1-4.54,3.72c1.39-1.5-3.68,1.16-1.79-.72-3.06,2.39-3.86,2.94-4.26,3.51a13.56,13.56,0,0,1-2.38,3l-1.41-.1c-1.28,1.35-1.2,1.84-4.74,3.66,2.7-1.9-2.77,0,.18-2.21a25.43,25.43,0,0,0-5.15,1.82c-1.45.65-2.68,1.29-3.79,1.9-2.19,1.24-4,2.05-6.16,1.54-1.47,1.56.31,1.26,2.23.7s3.94-1.51,3-.9c1,0,.35.62-.81,1.37a18.33,18.33,0,0,1-4.21,1.77c-1.27.41-2.54.17-4.3,0a21.26,21.26,0,0,0-7.15.61c.65-.13.65-.29,1.3-.43-2.53,0-4.56,1.87-7.72,1.52-1.46,1.5-3.89.62-4.13,2.24l6-1.42c-1.67.5-3.22,1.34-5.1,2.08a17.81,17.81,0,0,1-7,1.12,14.76,14.76,0,0,1,3.19-1.37c-1.72-.27-3.16.76-4.93.41.17-.77,2-1.06,4.22-1.39,1.11-.17,2.32-.32,3.47-.55a13.5,13.5,0,0,0,3.07-1.08c-.93-.18-2.58.45-3.83.76s-2.08.44-1.28-.51c-1.16,1.23-2.8,1.37-4.65,1.47a14.07,14.07,0,0,0-6.12,1l.24-1a12,12,0,0,1-3.45.7l2.3-1.26c-3.57,1.1-6.94-.67-10.36-.27,3.6.09,4,.36,3.89.73s-.76.84.78,1.14c-8.91,1.08-5.21-2.3-14.7-2.69,1.5.12,4.56,1,2.55,1.23a18.71,18.71,0,0,1-5.42-1.61c-6.55-.63.88,1.08-2,1.3-2.09-1.38-3.29,0-6.25-.18l.15-.94c-7.28-2.06-2.38,1.55-8.92-.65l3.13-.63c-1.17-.17-2.36-.29-3.54-.49l1-.86a20.55,20.55,0,0,1-8.52-2.2c.62.91-1,1.48-4.23.43-2-1.32,1.5-.37-3-2a4.44,4.44,0,0,1,4.2,1.08c.31-.23,1.2-.23,1.51-.45-2.13-1.32-5.7-2.27-7.3-2.87a8.9,8.9,0,0,1,1.64.88l-3.44-.65L84.73,264c-.84-.77.07-.68,1-.59-1.3-.49-2.4-.43-4.26-1.29.81-.46,1-1.18,3.81-.35-2.11-.58-4.14-1.35-6.21-2.08-.25-.48-2.52-2.34-1.64-2.2a26,26,0,0,0-5.74-2.72,23.92,23.92,0,0,1-6.28-3.6,4.62,4.62,0,0,1-1.67-.69c-.89-.69-1.73-1.39-2.56-2.09l-2.42-2.23c-.83-.73-1.72-1.44-2.68-2.14a25.44,25.44,0,0,0-3.15-2.11c-.45-1-.93-2-1.33-3-3.23-2.63,1.79,4.11-3.62-.31-3.9-3.1-.52-2.1-1.46-3.59a34.54,34.54,0,0,1-4.19-2.67,15,15,0,0,1-4.09-4.93A34,34,0,0,1,41,230.26l-1.67-3.09c3.67,2.3,5.29,4.77,4,1.68-1.13.69-3.45-1.7-5.56-4.26a38.43,38.43,0,0,0-3.05-3.44c-.9-.92-1.7-1.44-2.32-1.15l-.86-2.17c.36.54.55.54.9,1.07-1.51-4.28-3.48-1.58-6.3-6.61-.88-1.8-1.19-3.22-.25-2.2l-2.8-3.51c-.58-1.15,0-1.09.57,0-1.17-1.92-2.21-3.92-3.32-5.88h.09a30.07,30.07,0,0,1-3-3.28c-.37-1.73.62.68.74.13-.71-1.05-1.46-2.1-2.14-3.18,0-.85.5-.6,1.07.15a13.77,13.77,0,0,1,1.81,3.16,3.61,3.61,0,0,0-.78-3.8,13.06,13.06,0,0,1-2.45-6.34c.49,1.07,1.06,2.1,1.59,3.15.54-2.62-.85-5-1.19-9-.19,1,.27,8.23-1.66,4.64a11.5,11.5,0,0,0-1.77-4.52c.91-.3.1-2.28-.69-4.83l1.28-.15c-1.15-2.65-1.62-2.3-2.59-3.82-.61-3.17.19-4,.89-4.91-.7-5.06-.92,3.79-2.22-2.15A29.94,29.94,0,0,0,9,163c-.13-1-.28-1.87-.49-2.82-.4-1.89-1-3.87-1.55-6.41.21-3,.81.46,1.09-.64l-1.21-2.59c0-.65.3-.46.46-.36C6.77,147.9,6,150,5.55,146.46c-.69-.46-.29-2.32.22-4.57s1-4.9.4-7.14c.44-1.06.73.57,1.25.26-.61-6-.41-5.12-1.19-10.22.45-1.37.89-2.73,1.44-4.07-1.49,2.91-1.89-1.16-2.17-4.85-.65,1-1.22,1.9-1.52,2.5.11-1.91.21-3.84.46-5.74.36-.63.65,0,1,1a6.12,6.12,0,0,0-.06-1.09c.92-1.88,1.38-.67,1.75.88l-1.22,1.82c.5,1.53,1.11,3,1.89,2.8a7.24,7.24,0,0,1,0-1.86c.14.4.28.66.44.52s0-.79-.13-1.74L9.77,114l-.48-.42c.83-2.29,1.64-4.57,2.63-6.79,0-1.33,0-2.65-.06-4A39.87,39.87,0,0,1,12,98.65,29,29,0,0,1,12.57,94a38.57,38.57,0,0,1,1.51-5.5c.08,2.31,1.37,1.07,2.44,1.66-1.06.77-1.49,2.34-1.94,4.15a44.64,44.64,0,0,1-1.58,5.9c.85-2.06,1.24-1.4,1.25-.8.39-2.54,1-5,1.59-7.52.85.54,1.27-1.22,2.5-2.84-2.45.57,1.11-5.72,2.1-8.72.68.13.94,1.11-.93,4.39,3.25-3,.33-5.91,3.55-8.87-.45.81-.79,1.2-.67,1.68a15.21,15.21,0,0,1,2-3.91c.83-1.18,1.64-1.87,1.54-1.2l-.49.78c.88-1.26,1.95-2.87,3-4.6s2.39-3.49,3.45-5.2c2.25-3.34,4-6.28,3.66-7.16a7.37,7.37,0,0,1,1.08,2.41,123.82,123.82,0,0,1,3.2-12c.37,1.69,5.41,1.39,2.48,5.62a21.05,21.05,0,0,0,4.38-4.56c-.86.53-3.27.26-2.37-.79,3.87-1.44,2.47-1.25,6.82-3.33-1.34.75-1.6-2,.27-3.53-.06.5,1.61,1.56,1.11,2.3.95-1.75,1.91-3.52,3-5.21-.47,1,1.27,1.34,2.55,1.05-.37,0,.63-.75,1.86-1.67s2.79-1.86,3.35-2.4l-2.33,1c5.59-3.56,3.63-6.36,9.45-9.79-.48.8-.27,3.39,2.78,2,.7-1.74,3.3-8.19,8.56-11.51l1.34.11c1.32-.86,2.63-1.75,4-2.52-1.06,1.27-3,3.67-5.12,6s-4.18,4.92-5.74,6.49c2.44-.69,1,.36,4.23-1.37,1.43-.05-1.36,1.73-2.31,2.25,2.6-1.18,5.17-2.39,7.84-3.38-.45-.52.9-1.5,2.29-2.46s2.86-1.74,2.5-2.2c-2.78,1.5-5.4,3.3-8,5-.47-.52.36-1.92,2-3.49A20,20,0,0,1,92,16c1.65-.09-.26,2.63,0,3,.54-.78,5.17-2.81,5.81-2.66l-2.23,1.5a11.54,11.54,0,0,0,4.16-2,8.69,8.69,0,0,1,4.9-1.38c1.39-.35,4.5.6,4.55-.2-2.57-1-4.25-5.36-3-6.83l4.37-.13a26.79,26.79,0,0,1,5.29.35c2.54.75-3,3.4-.82,4,0-.37,1.21-1,1.72-1.27,1.53,0-.42,1.21,2.75.48.33-1.4,6.58-.72,1.36-1.32C124,8.8,124.24,9.3,128,9c-1.29-.74,3.12-3.27,6.41-3.75-.18.34.57.77.93,1h.16c.2.07.2.07.08,0,1.57,0,3,0,4.26,0s2.63.23,3.87.34l3.78.34c1.29.15,2.67.3,4.2.42.55.35,3.46,1,2.15,1.46a10.31,10.31,0,0,1,3.63-.28c3.48,1.61-4.2-.34-1.6,1.39.32-.72,5-.54,7.7-.46-.31-.65-1.83-1.05-3.64-1.11s-3.87,0-5.23.1c.08-.82,1.33-1.52,3.42-2a22.09,22.09,0,0,1,3.71-.52c1.4,0,3,0,4.62.07,5.24.59,2,1.51,3,1.44a27.15,27.15,0,0,0,5.51.94,21.69,21.69,0,0,0,3.42,0c2-.07,3.8-.12,7.51,1.8,2.73,2-.56,2-.13,3A21.75,21.75,0,0,1,181,11.36a24.68,24.68,0,0,0-3.89-1.56l3.26,1.44A16.55,16.55,0,0,1,174.79,10a16.82,16.82,0,0,0,3.54,1.46l2.81.88,3.18,1.11c1.1.39,2.25.76,3.38,1.19L191,16a42.88,42.88,0,0,1,5.79,2.9c1.35.22,3.6.83,2.8,0l-2.22-.83c-1.65-1.68,4.58.76,2-.83a46.62,46.62,0,0,1,5.07,1.46,27.31,27.31,0,0,1,2.75,1.12A26.08,26.08,0,0,1,210,21.55l.14,1.47c.09-.35-2.21-2.1-3.5-2.4,1.91.51,5.22,4.77,7.74,4.6-.75-.79-1.48-1.63-2.27-2.38,3.06,1.17,7.25,2.22,10.33,5-.83-2.05-.83-.44-2.43-3.25,1.16,2.79-8.82-5.69-6.36-2-1.76-2.84-4-3.23-6.89-6.22-.08.41.88,1.31-2.1-.43a3.84,3.84,0,0,1-.83,0l-.2-.13.15.12c-.16,0-.18,0,.06.05a4.91,4.91,0,0,1,1.28,1.33,15.78,15.78,0,0,1-4.36-1.3,38.29,38.29,0,0,0-4.33-1.39c-1.76-1,1-.07.12-.91-.92-.17-1.85-.31-2.8-.41.11-.91-4.48-3.34.19-2.06l-4-1.62a24.13,24.13,0,0,0-7.71-3c-1.92-.74-5.24-.46-3.34-.64l-3.35-.65-3.37-.49V4.68c-3.24-.88-6.73-1-10.25-1.49A57.67,57.67,0,0,1,151,1.36c-1.13,0-2.28.06-3.62,0a37.49,37.49,0,0,1-4.74-.18L141.93.4c-1.46.06-3.64,0-5.62-.13s-3.8-.06-4.4.42A8.18,8.18,0,0,0,128.23,0,27.47,27.47,0,0,0,123,.44c-1.88.3-3.82.59-5.59,1a41.67,41.67,0,0,1-4.67.84v1a39.65,39.65,0,0,0-5.16,1.27,55.59,55.59,0,0,0-5.62,1.93l.49.78a35.67,35.67,0,0,1-6.63,2l-4.07,1c-1.38.41-2.78.9-4.15,1.45.25-.46,1.69-.92,2.75-1.12A19,19,0,0,0,85,11.93a44.57,44.57,0,0,0-4.85,2.64c-1.59.91-3.06,2-4.58,2.83A24.73,24.73,0,0,1,71,19.47a9.14,9.14,0,0,1-3.36,1.91,1.44,1.44,0,0,0,.32-.23l-.58.31a22.63,22.63,0,0,0-2.14.76c.62-.16,1.24-.36,1.84-.58a39.33,39.33,0,0,0-4,2.92l-1.18-.38-.34.25c-1.71.68-1,1.15.24,1.23a11.07,11.07,0,0,0-1.66,1.83c-2.06-.38-3.62,3.1-6.13,3.06-.25.7-2,2.22-3.57,3.81-1.34,1.36-2.57,2.87-2.76,3.86a14.39,14.39,0,0,0-4.18,4L42,41.9c-.71,1.39-1.36,2.8-2,4.24-2.36,1.41-3.46,1.94-2.29-.63-1.73,2.8-2.48,3.87-3.14,4.86a26.21,26.21,0,0,0-2.49,4.37L31.71,54c-1.2,1.55-2.28,4.62-3.52,5.15-1.88,1.3-5.12,5.64-8.45,10.93S13.16,81.7,10.32,86.6c1.51-.53.71.54-.22,1.92s-2,3.08-1.24,3.6c-.75.41-1.61,1.77-1.38-.1-.87,2.76-1.65,4.77-2.4,6.57a11.21,11.21,0,0,0-1,5.59c-.71.49-.43-1.4-.9-.93a4.61,4.61,0,0,1-.53,2.39c-.47.48-.21-.94-.18-1.89a17.2,17.2,0,0,0-.64,3.48,6,6,0,0,0,.3,2.14A3.41,3.41,0,0,0,4,111.27a11.32,11.32,0,0,0-1.27,3.38A7.83,7.83,0,0,0,3,117.73c-.69.9-1.53,2.51-1.07-1.09-.17,1-1.06,4-1.38,6.88S0,129,.68,129.2a8.33,8.33,0,0,0-.21,3.37A70.89,70.89,0,0,0,0,142l.24-1.23c1.44,1.77.33,3.69.6,7.28L.7,148a17.89,17.89,0,0,0,0,5.89,37.08,37.08,0,0,1,.15,5.82l.89-.55c1.06.26,1,2.06.82,4.39A19.08,19.08,0,0,0,3.19,171l.23-1.78c.53,1.2.28,3.07-.11,5s-.9,4-.63,5.26c0,.6-.54-.79-.85-1.54.7,7,1.44.55,3.11,5.39-.36,1.09-2-.68-1.09,2.67,0,.9,1.34,3.14,2.72,5.7A25.89,25.89,0,0,1,10,199.45c0-1.15.1-2.28,1.43-.28C13,202.38,13.88,208.92,17,211c.11.47.08.69,0,.77.9,1.09,2.11,3,3.46,4.65a18.61,18.61,0,0,0,3.4,3.58c-.36,1,.24,2.29,1.19,3.74a31.21,31.21,0,0,0,3.76,4.44c2.76,2.9,5.51,5.31,4.35,6.27,1.88,2.15,3.89,4.18,5.91,6.19l-.37,0a21.82,21.82,0,0,0,4.47,4,14.69,14.69,0,0,0,3.09,1.56c.81,1-.07.58-.26.63,2.83,2.83,4.39,4.4,6.12,5.5a33.32,33.32,0,0,0,6.55,3.32v1.19c1.7.65,8.74,7.82,16.34,10.42a1.24,1.24,0,0,1-1,0c4.18,1.55,8.66,4.42,12.83,6.47s7.89,3.37,10,2.2c1.92.38,3.89.55,5.82.81-7.11-2.29,1.49-1.18-1.29-2.58a14.48,14.48,0,0,1,4.1,1.66c1,.55,1.12,1-.64.62l-.49-.32c-1.79,1.55,8.84,2.81,8.41,3.91,14.52,2.75,29.08,4.25,43,2.83-.58-.41-1.16-.8-1.74-1.25,1.61-.13,3.2-.34,4.8-.5,1.3.17,1.86.9-1.6,1.28,1.93.59,5.68-1.42,5.7-1.8,6.77-.6-2.33,2.12-.29,1.79l2.79-.6h-.66c2.15-1,2.26-1.52,6.31-2.41,2.62-.31,1.51.56,2.54.38,0,.1.37.07,1.57-.31,2-.48,4-1,6-1.53l-2.68-.43c2.45-1.25,5.51-1.53,2.45-2,2.24.35,7.73-1.22,12.8-3.31,2.55-1,5-2.22,6.94-3.09a33.34,33.34,0,0,1,4.05-1.81c1.5-1.21,3.06-2.26,4.71-3.35s3.51-2,5.45-3.26c-1.09.42-2.33-.31,1.06-2.29.1,1.48,1.83.81,3.91-.42s4.61-2.83,6.43-3.12c-1.52.39.67-1.42,2.65-3.15s3.62-3.54,1.35-2.73c2.64-2,.79.62,3.11-.56,5.27-5.94,13.18-11.59,19-19.62-.18-.33-1.61.62-.72-1.33,1.55-1,3-2.07,4.46-3.13,1-1.72-.54-2.54,2.36-4.85-.52.26-1.29.64-.68-.5,5.95-7.53,10.21-16.47,13.61-25.64s6-18.61,9.15-28c-1.14,2.5-.89.74-.56-1.24-.39,1.26-.84-.16-1.35,0,.77-2.6,1.59-5.23,2.29-7.89C280.37,155.44,280.52,153.25,280.66,151.19ZM186.58,9.06h-.12C184.31,8,185.07,8.36,186.58,9.06ZM47.69,38.24a1.15,1.15,0,0,0,0,.45C47.49,38.57,47.05,38.82,47.69,38.24ZM9,108.7a5.74,5.74,0,0,1-.95,3.11A10.29,10.29,0,0,1,9,108.7Zm6.93,81.19c-1.45-.67-1.29-1.68-1.52-3.4C14.9,187.38,16.17,189,15.94,189.89Zm158.12,89.42h-1C175.11,278.53,174.58,278.91,174.06,279.31Z" transform="translate(0 0)"/><path d="M8.35,117.76a.83.83,0,0,1-.59.33C7.85,118.51,8,118.55,8.35,117.76Z" transform="translate(0 0)"/><path d="M65.59,251.06l-.35-.05.12.1A.46.46,0,0,0,65.59,251.06Z" transform="translate(0 0)"/><path d="M117.09,11.8a6.22,6.22,0,0,1-1.92-.16C115.16,11.88,115.63,12,117.09,11.8Z" transform="translate(0 0)"/><path d="M215.11,21.17c-.84-.45-1.7-.84-2.56-1.26a8,8,0,0,1,2.32,1.73C214.92,21.45,214.69,21,215.11,21.17Z" transform="translate(0 0)"/><path d="M215.11,21.17l.32.16A1.55,1.55,0,0,0,215.11,21.17Z" transform="translate(0 0)"/><path d="M233.54,42.39c.41.22.7.64,1.1.86l.22-.41C233.45,41.54,232.24,40.89,233.54,42.39Z" transform="translate(0 0)"/><path d="M216.21,25.58c-.24.83,1.61,1.56,3.46,2.74a3.62,3.62,0,0,1-.32-.22C220.53,27.54,218.4,26.49,216.21,25.58Z" transform="translate(0 0)"/><path d="M220.1,28.59a18.87,18.87,0,0,1,1.66,1.15C222.23,29.53,221.14,29.19,220.1,28.59Z" transform="translate(0 0)"/><path d="M197.13,13c.88.62,1-.66,1.43-.12C200,12.43,191.61,11.17,197.13,13Z" transform="translate(0 0)"/><polygon points="214.68 27.5 216.25 28.72 216.14 27.48 214.68 27.5"/><path d="M201.84,19.61l3,1.81c0-.17.46-.06,1,.12C203.9,20.55,201.9,19.31,201.84,19.61Z" transform="translate(0 0)"/><path d="M205.78,21.54a13.58,13.58,0,0,0,2.51,1.23A20.09,20.09,0,0,0,205.78,21.54Z" transform="translate(0 0)"/><path d="M212.12,26.45l-.75-.72-2.07-1.27C210.24,25.13,211.22,25.73,212.12,26.45Z" transform="translate(0 0)"/><path d="M166.74,7.54,163,7.16c-.44.27.54.65,1.94.76C165.84,7.85,167.25,8,166.74,7.54Z" transform="translate(0 0)"/><path d="M175.32,12.77l1.81,0a3.71,3.71,0,0,1-1.38-1.17Z" transform="translate(0 0)"/><path d="M166.56,10.54c-.44.27-5.44,0-.84.77C166.15,11,169.84,11.46,166.56,10.54Z" transform="translate(0 0)"/><polygon points="111.75 9.37 111.2 7.44 110.82 9.6 111.75 9.37"/><path d="M71.66,29.51c.61-1-3,1.27-2.29.37-1.93,1.83-3.23,2.32-1.5,2.78C71.74,30.78,68.05,31.06,71.66,29.51Z" transform="translate(0 0)"/><path d="M70.37,28.88a6.75,6.75,0,0,0-1,1C69.68,29.59,70,29.27,70.37,28.88Z" transform="translate(0 0)"/><path d="M282.34,150.87c.24-1,.36-2,.54-2.93l-.73,1.88C282.23,150.17,282.28,150.52,282.34,150.87Z" transform="translate(0 0)"/><path d="M282.3,144.52l-1.11-1.77a5.59,5.59,0,0,1-.19,2.44Z" transform="translate(0 0)"/><path d="M14.47,180.72l.11-2.25-.35-.11C14,178.85,14.17,179.47,14.47,180.72Z" transform="translate(0 0)"/><polygon points="28.1 213.45 28.76 212.38 28.43 211.83 28.1 213.45"/><path d="M49.36,235.4c-.73-.7-1.64-1.42-2.42-2.18C48.46,234.91,48.67,236.54,49.36,235.4Z" transform="translate(0 0)"/><path d="M60.85,130H90.59q13.09.11,19,7.55t3.88,20.3a38.61,38.61,0,0,1-3.46,11.5,34.4,34.4,0,0,1-7.1,10.2A24.79,24.79,0,0,1,91,186.89a54.57,54.57,0,0,1-13.1,1.55H64.63l-4.22,21.09H45L60.85,130h0m13,12.65L67.19,176a7.39,7.39,0,0,0,1.33.11h1.55q10.67.12,17.76-2.1t9.54-16.21q2-11.64-4-13.42a49.69,49.69,0,0,0-14.76-1.72c-.89.07-1.74.11-2.55.11H73.73l.11-.11" transform="translate(0 0)"/><path d="M131,108.77h15.32L142,130h13.76q11.32.23,16.87,4.66T176,151.49l-7.44,37H153l7.1-35.29c.74-3.7.52-6.32-.67-7.88s-3.73-2.33-7.65-2.33l-12.32-.11-9.1,45.61H115l16-79.67h0" transform="translate(0 0)"/><path d="M192.41,130h29.74q13.1.11,19,7.55T245,157.81a38.88,38.88,0,0,1-3.44,11.55,34.4,34.4,0,0,1-7.1,10.2,24.78,24.78,0,0,1-11.87,7.33,54.57,54.57,0,0,1-13.1,1.55H196.18L192,209.53H176.54L192.41,130h0m13,12.65L198.75,176a7.39,7.39,0,0,0,1.33.11h1.55q10.65.12,17.76-2.1t9.54-16.21q2-11.64-4-13.42a49.65,49.65,0,0,0-14.76-1.67c-.89.07-1.74.11-2.56.11h-2.33l.12-.11" transform="translate(0 0)"/><path d="M44.18,76l-9.32,46h83.92l9.31-46ZM71.7,104.52m22.48-2.65Zm27.2-12.44v.07h0l-.06.09h-.24a.94.94,0,0,0-.24-.49.42.42,0,0,0-.17-.1,4.79,4.79,0,0,1-.74-.21,5.65,5.65,0,0,0-1-.26l-.06-.11V88.3a.35.35,0,0,0-.21-.32.36.36,0,0,0-.38.08.91.91,0,0,0-.11.16h0a.38.38,0,0,0-.39-.08h-.08a1.06,1.06,0,0,0-.61,0h-.18a.35.35,0,0,0-.34-.26,1.21,1.21,0,0,0-.38.06,1,1,0,0,1-.49,0h0a.55.55,0,0,0-.27-.33.34.34,0,0,0-.31,0,.52.52,0,0,0-.2.19.33.33,0,0,1-.07-.13.35.35,0,0,0-.42-.27.22.22,0,0,0-.11,0,.55.55,0,0,0-.22.3,3.69,3.69,0,0,0-.47,0,1.19,1.19,0,0,1-.46,0v-.09a.32.32,0,0,0-.47-.26.53.53,0,0,0-.3.29.51.51,0,0,0-.46-.31h0a.57.57,0,0,0-.7.39,1.11,1.11,0,0,0-.54.1.34.34,0,0,1-.31,0,.65.65,0,0,0-.39,0,.79.79,0,0,0-.43.23h-.12a.64.64,0,0,0-.63,0,.23.23,0,0,0-.1.07h0a.68.68,0,0,0-.27.13l-.18.09a.35.35,0,0,0-.24.33,2.54,2.54,0,0,1-.23.9c-.06.15-.11.29-.17.49s0,.23,0,.32v.22l-.09.08a.57.57,0,0,0-.23.3.7.7,0,0,1-.07.37.79.79,0,0,1-.1.37c-.08.26-.17.52-.26.78a10,10,0,0,0-.58,2.07.59.59,0,0,0-.16.38h0a1.24,1.24,0,0,0-.51.48.43.43,0,0,0,0,.16,4.05,4.05,0,0,1-.22,1.73.33.33,0,0,0,0,.38c.29.35.77.34,1.28.32s1,0,1.59,0a18.78,18.78,0,0,1,3,0h.18l.1.15c.18.18.4.11.75,0h.14a7.73,7.73,0,0,1,2.2.11l.29.45c.23.34.47.71.66,1.06l.16.29a1.36,1.36,0,0,1,.29.91.69.69,0,0,0-.2-.28.4.4,0,0,0-.24-.07.87.87,0,0,1-.53-.27.92.92,0,0,0-1-.27.31.31,0,0,0-.19.24,1.61,1.61,0,0,0,0,.31.71.71,0,0,0-.53.51v.1a.54.54,0,0,0-.39.1l-.07.06a1.3,1.3,0,0,1-.72-.22.36.36,0,0,0-.47.08,1.62,1.62,0,0,1-.35.17l-.17.07a1.79,1.79,0,0,0-.92,0c-.27,0-.36.06-.51,0a.34.34,0,0,0-.48.06h0c-.06.07-.14.07-.39.05a1.07,1.07,0,0,0-.76.14.53.53,0,0,0-.59-.15.41.41,0,0,0-.19.2.53.53,0,0,1-.25,0,.56.56,0,0,0-.36,0,.59.59,0,0,0-.18.13.37.37,0,0,0-.07-.14.42.42,0,0,0-.28-.12.63.63,0,0,0-.44.22h0a.73.73,0,0,0-.41-.12.58.58,0,0,0-.31.2.48.48,0,0,0-.37,0,.84.84,0,0,0-.27.13.33.33,0,0,0-.24,0,.38.38,0,0,0-.26.2,1.74,1.74,0,0,0-.13.51,2.64,2.64,0,0,1-.15.55v.06h0a.69.69,0,0,0-.22.34,2.56,2.56,0,0,0-.1.54v.2l-.11.36c-.08.3-.16.58-.29.94a1.21,1.21,0,0,1-.09.31,1.14,1.14,0,0,1-.1.36.8.8,0,0,0-.18.47,2,2,0,0,0-.21.84,1.13,1.13,0,0,0,0,.26.49.49,0,0,0-.18.2.34.34,0,0,0,0,.2h0a1.8,1.8,0,0,1-.08.21,1.37,1.37,0,0,1-.13.35.73.73,0,0,0,0,.36h0a.39.39,0,0,0-.13.29v.21a.34.34,0,0,0-.14.21,4.66,4.66,0,0,0-.08.64,2.16,2.16,0,0,1,0,.36.41.41,0,0,0-.15.27.32.32,0,0,0-.25.17.36.36,0,0,0,0,.35c.14.22.09.35,0,.61a2.47,2.47,0,0,0-.11.36l-.19.08a.34.34,0,0,1-.28,0,.38.38,0,0,0-.33.11.35.35,0,0,0-.07.34.66.66,0,0,0,.54.49.72.72,0,0,0,.12.21v.68a1.7,1.7,0,0,0,.39.66h0v.33l-.06-.06a1.12,1.12,0,0,0-.51-.28H99.63a1.26,1.26,0,0,0-.33-.16.66.66,0,0,1-.19-.09.38.38,0,0,0-.15-.09l-.09-.07a1.25,1.25,0,0,0-.42-.3.4.4,0,0,0-.18-.07.37.37,0,0,0-.07-.2.52.52,0,0,0-.11-.1.31.31,0,0,0-.19,0,3,3,0,0,1-.37-.25.21.21,0,0,1,0-.11.35.35,0,0,0-.14-.2,1.31,1.31,0,0,0-.27-.12l-.18-.06a4.42,4.42,0,0,1-.32-.61l-.08-.12-.13-.1h0a.44.44,0,0,0-.17-.4v-.07a1.77,1.77,0,0,0-.15-.38,2.05,2.05,0,0,1-.25-.83.61.61,0,0,1,.14-.07,1.13,1.13,0,0,0,.35-.21.35.35,0,0,0,.06-.4.64.64,0,0,0-.4-.3.35.35,0,0,0-.22-.19h0c0-.41.06-.84.07-1.3a9.74,9.74,0,0,1,.21-2.15c0-.3.1-.7.14-1.13a11.94,11.94,0,0,1,.26-1.78.33.33,0,0,0,0-.24,1.53,1.53,0,0,0-1.08-.78,1,1,0,0,0-.43-.46h-.07a.35.35,0,0,0-.07-.3h0a.31.31,0,0,0-.09-.18.43.43,0,0,0-.14-.32,2.47,2.47,0,0,1-.15-1.08.52.52,0,0,0,.19-.36.52.52,0,0,0,.31-.12.69.69,0,0,0,.23-.22h0c.41-.14,1.1-.32,2-.55a.24.24,0,0,0,.12,0,1.77,1.77,0,0,0,.65-1.11,1.33,1.33,0,0,1,.13-.4.51.51,0,0,0,.13-.35c0-.14,0-.15.11-.29a.48.48,0,0,0,.07-.2.43.43,0,0,1,0-.16,2.13,2.13,0,0,0,.34-.79,4.16,4.16,0,0,1,.16-.5.39.39,0,0,0,.24-.35v-.36c.11-.22.22-.44.34-.65.25-.47.5-1,.72-1.49a.31.31,0,0,0,0-.32.33.33,0,0,0-.29-.15,1.59,1.59,0,0,0-.84.28c-.3.17-.37.19-.46.13a.39.39,0,0,0-.3,0,.53.53,0,0,0-.32.43.43.43,0,0,0-.12.11.64.64,0,0,0-.18.06h0L97,92.3a.35.35,0,0,0-.32-.17,1.15,1.15,0,0,1-1.13-.71l-.14-.19c-.33-.44-.88-1.17-.59-1.88A.42.42,0,0,0,95,89L95.1,89a2,2,0,0,0,.31-.27.35.35,0,0,0,0-.39.34.34,0,0,0-.36-.17,6.48,6.48,0,0,1-2.44.14,1.51,1.51,0,0,0-1,.17,3.06,3.06,0,0,1-.59.17h-.09a.37.37,0,0,0-.38.15,2.6,2.6,0,0,0,0,1.41c-.33,1-.69,2-1.06,3-.82,2.32-1.67,4.72-2.42,7-.33,1.12-.63,2.2-.93,3.26-.17.62-.34,1.23-.49,1.79-.09.21-.17.42-.24.64a.46.46,0,0,0-.13.29v.15a2.19,2.19,0,0,0-.12.33,5,5,0,0,1-.29,1c-.06.16-.11.32-.17.52h0a.36.36,0,0,0-.17.26.42.42,0,0,0,0,.27,2.58,2.58,0,0,0-.08.26v.13a7.81,7.81,0,0,0-.4,1.51,3.33,3.33,0,0,1-.14.7,6,6,0,0,0-.3,1,9.21,9.21,0,0,1-.36,1.27,1,1,0,0,0,0,.24v.06a.92.92,0,0,0,0,.61v.06a.5.5,0,0,0-.09.24,1.55,1.55,0,0,0,0,.43.81.81,0,0,1,0,.22,4.69,4.69,0,0,0-.75,0,1.89,1.89,0,0,1-.67,0,5.22,5.22,0,0,1-1.49-.75l-.1-.09a2.18,2.18,0,0,1-.73-1.08v-.19a.33.33,0,0,0-.15-.33.46.46,0,0,0-.07-.21h0a.35.35,0,0,0-.09-.44v-.73a41.71,41.71,0,0,1,.41-4.47c.11-.49.23-1.16.38-2a2.61,2.61,0,0,1,.21-.67c0-.11.09-.22.15-.42a.67.67,0,0,0,0-.2.57.57,0,0,1,0-.26.24.24,0,0,0,0-.12.24.24,0,0,1,0-.12.54.54,0,0,0,.08-.21,8.87,8.87,0,0,0,.28-1.34c.06-.32.11-.63.19-1a.19.19,0,0,1,.06-.12.93.93,0,0,0,.14-.36,25.69,25.69,0,0,1,1-3.23,7.71,7.71,0,0,1,.4-1.14,3.13,3.13,0,0,1,.38-.88c.07-.2.13-.41.19-.61.13-.41.25-.8.4-1.17a.4.4,0,0,0,.21-.25c.14-.44.4-1.12.59-1.62.08-.16.18-.32.28-.48A3,3,0,0,0,85,89.66a.34.34,0,0,0-.26-.38.49.49,0,0,0-.63.26v.13H84l0-.1a.86.86,0,0,0-.41-.45.37.37,0,0,0-.46.19.5.5,0,0,0,0,.12.65.65,0,0,1-.35.6h0a3.15,3.15,0,0,0-1.81.51.4.4,0,0,1-.27-.14.5.5,0,0,0-.24-.09.71.71,0,0,0-.66.53,1,1,0,0,0-.43.06h-.25a.55.55,0,0,0-.4.26.42.42,0,0,0-.31,0,.38.38,0,0,0-.18.15v.06a.9.9,0,0,1-.27-.21.45.45,0,0,0-.27-.1.35.35,0,0,0-.25.14,4.68,4.68,0,0,0-.5,1l-.06.16a.79.79,0,0,0-.07.37h0a1.58,1.58,0,0,0-.32.68v.1a.53.53,0,0,0-.3.38.83.83,0,0,1-.06.21.9.9,0,0,0-.08.21,2.35,2.35,0,0,0-.23.32c-.12.2-.17.25-.22.25a.34.34,0,0,0-.36.29v.57a2.46,2.46,0,0,1-.06.65,1.34,1.34,0,0,0-.39.67c-.11.31-.16.4-.23.4h0a.34.34,0,0,0-.25.09.32.32,0,0,0-.11.24A10.45,10.45,0,0,1,74,98.91v.15a.35.35,0,0,0-.36.11.84.84,0,0,0-.12.72.74.74,0,0,1,0,.21.44.44,0,0,0-.25.08.27.27,0,0,0-.09.12,1.35,1.35,0,0,0-.14.71.81.81,0,0,1,0,.22.53.53,0,0,0-.38.4.45.45,0,0,0,0,.23.41.41,0,0,0-.22.23,2.88,2.88,0,0,0-.17.64,3.6,3.6,0,0,1-.15.63.44.44,0,0,0-.24.36v.18a4.15,4.15,0,0,1-.14.61.45.45,0,0,0-.26.21.4.4,0,0,0,0,.34.35.35,0,0,0-.17.24,7.65,7.65,0,0,1-.55,1.74.94.94,0,0,1-.14.33,3.64,3.64,0,0,0-.26.72.23.23,0,0,0,0,.2.77.77,0,0,0-.07.16,3.15,3.15,0,0,0,0,.43V109a.37.37,0,0,0-.16.3c-.06.22-.18.5-.3.8s-.13.31-.19.47a.42.42,0,0,0-.23.33.41.41,0,0,0,.08.24.23.23,0,0,1,.06.12.62.62,0,0,0-.3.25.54.54,0,0,0,0,.55c-.22.57-.43,1.07-.61,1.44a4.61,4.61,0,0,1-.65,1.14,1.09,1.09,0,0,1-.36,0,2.29,2.29,0,0,0-.64,0,2.23,2.23,0,0,0-.47.22,2,2,0,0,1-.3.14,6.32,6.32,0,0,1-2.89-.31l-.14-.08a2.13,2.13,0,0,0-.68-.28h-.09a.57.57,0,0,0-.11-.22l-.09-.07A.58.58,0,0,0,62,114h-.13a.53.53,0,0,0-.31-.61v-.15a2.94,2.94,0,0,0,0-.42.35.35,0,0,0-.15-.24,1.31,1.31,0,0,0-.09-.28,1.86,1.86,0,0,1-.1-.39c-.08-.28-.13-.59-.19-.92s-.13-.76-.23-1.17h0a.39.39,0,0,0-.12-.19v-.18a3.78,3.78,0,0,0,0-1,1.66,1.66,0,0,0-.16-.49,1.54,1.54,0,0,1-.08-.19,2.67,2.67,0,0,1,0-.4,2,2,0,0,0,0-.49,2.16,2.16,0,0,1,0-.36,2.41,2.41,0,0,0,0-1,.43.43,0,0,0,0-.16.63.63,0,0,0,.16-.24.6.6,0,0,0-.11-.53,1,1,0,0,1,0-.39,2.28,2.28,0,0,0,.07-.54.36.36,0,0,0-.12-.28v-.17a1.34,1.34,0,0,0-.08-1,.66.66,0,0,0-.45-.25h-.1c-.41.07-.38.51-.36.81a1.61,1.61,0,0,1,0,.69.9.9,0,0,1-.46.09h-.09a.32.32,0,0,0-.29.17.33.33,0,0,0,0,.36.79.79,0,0,1,.09.52.28.28,0,0,1-.11.17l-.08.06a.74.74,0,0,0-.18.57.46.46,0,0,1-.08.34h0a.58.58,0,0,0-.25.12.44.44,0,0,0-.08.11,2.18,2.18,0,0,0-.11.44,1.28,1.28,0,0,1-.07.34.76.76,0,0,0-.43.31,1,1,0,0,0-.11.39.81.81,0,0,1-.09.37.39.39,0,0,0-.18.27,1.19,1.19,0,0,0-.08.2s0,.1-.07.1a.34.34,0,0,0-.32.09.32.32,0,0,0-.1.32c0,.11,0,.16.07.23a.21.21,0,0,1,0,.11h0a.66.66,0,0,0-.36.56A1,1,0,0,0,56,110a.33.33,0,0,0-.13.07.79.79,0,0,0-.26.65v.08a.43.43,0,0,0-.31.3,1.63,1.63,0,0,0-.13.37.2.2,0,0,1-.09.19h0a.47.47,0,0,0-.3.44c-.15.57-.26.7-.22.72a.32.32,0,0,0-.3,0,.31.31,0,0,0-.18.25,2.15,2.15,0,0,0,0,.62.43.43,0,0,1,0,.16,4.45,4.45,0,0,0-.73,0,.35.35,0,0,0-.3.28.94.94,0,0,0,.14.71.33.33,0,0,1,0,.33h-.29a2.33,2.33,0,0,0-.83-.09H52a3.66,3.66,0,0,1-.46.18l-.49.19a.55.55,0,0,0-.22.1l-.61-.11a7.48,7.48,0,0,1-1.67-.44.49.49,0,0,0-.25-.2l-.25-.08a2,2,0,0,1-.48-.2.41.41,0,0,0-.27-.21.71.71,0,0,0-.14-.32.38.38,0,0,0-.13-.09.34.34,0,0,0-.09-.24.42.42,0,0,0-.17-.1.32.32,0,0,0-.11-.24,3.87,3.87,0,0,1-.83-1.28v-.16a.73.73,0,0,1,.23-.56l.21-.27a.24.24,0,0,0,0-.12.72.72,0,0,0-.44-.87.31.31,0,0,1-.11-.09,41.46,41.46,0,0,1,1.18-8.22c.16-.48.31-1.16.46-1.82s.29-1.23.43-1.68v-.51a7.2,7.2,0,0,0,.45-1.28,1.6,1.6,0,0,1,.11-.39,2.25,2.25,0,0,1,.33-.87.32.32,0,0,0,.08-.21c0-.2.1-.27.37-.43a1.78,1.78,0,0,0,.36-.25.3.3,0,0,0,.09-.13.54.54,0,0,0,0-.43.54.54,0,0,0-.36-.27h0a3,3,0,0,1,.37-1,3.37,3.37,0,0,0,.28-.61,3.19,3.19,0,0,0,.27-.86.6.6,0,0,0,.07-.32h0a1,1,0,0,0,.33-.39c.11-.33.21-.66.29-1a7.27,7.27,0,0,1,.22-.8.45.45,0,0,0,.21-.38,4,4,0,0,1,.16-.59.39.39,0,0,0,.14-.08.38.38,0,0,0,.14-.26V87a1.77,1.77,0,0,0,.33-.69,1.86,1.86,0,0,0,.1-.25.39.39,0,0,0,.26-.34.54.54,0,0,1,.1-.16,1.34,1.34,0,0,0,.29-.57,1.59,1.59,0,0,1,.11-.16,1,1,0,0,0,.32-.55c0-.27.37-.56.72-.87a5.39,5.39,0,0,0,.75-.76,1.4,1.4,0,0,0,.28-.06H55a.47.47,0,0,0,.07.12.37.37,0,0,0,.39.09h0l.14.18.22.17.19.17.12.12a.32.32,0,0,0,.11.12.73.73,0,0,0,.41.12.34.34,0,0,1,.2,0l.09.14a1.34,1.34,0,0,0,.31.36.48.48,0,0,0,.2.07.45.45,0,0,0,.23.32.49.49,0,0,0,.17,0H58a1.23,1.23,0,0,0,.4.53v.07a.68.68,0,0,0,0,.59.27.27,0,0,0,.07.08,7.24,7.24,0,0,1-.12.92l0,.33c-.19,1.07-.49,2.15-.8,3.28l-.14.55c-.17.64-.35,1.26-.53,1.91-.12.39-.23.79-.36,1.29v.42a.72.72,0,0,0-.2.43,1.29,1.29,0,0,1-.07.51,2.64,2.64,0,0,1-.26,1,1.21,1.21,0,0,0-.51.54h0a1.05,1.05,0,0,0-.78,0,.35.35,0,0,0-.24.22v.07a.44.44,0,0,0-.19.07.38.38,0,0,0-.13.24.84.84,0,0,0,.2.74,1,1,0,0,0,.94.06l.31-.08a4.37,4.37,0,0,1-.17.62,3,3,0,0,0-.2,1.29.35.35,0,0,0,.23.3.53.53,0,0,0,.39,0,.67.67,0,0,0,.3-.46h.05a.27.27,0,0,0,.08-.07,3.27,3.27,0,0,1,.34-.55v-.12a.5.5,0,0,0,.16-.4,1,1,0,0,0,.6-.7.3.3,0,0,0,.19-.14,1.18,1.18,0,0,0,.26-.69v-.17h.08a.62.62,0,0,0,.31-.16.36.36,0,0,0,.12-.28.33.33,0,0,0,.11-.15.65.65,0,0,0,0-.2.38.38,0,0,0,.22-.32V96h0a1.62,1.62,0,0,0,.49-.69l.09-.06c.19-.15.29-.22.48-.15a.35.35,0,0,0,.43-.24.36.36,0,0,0-.05-.3,1.69,1.69,0,0,1,0-.55v-.31A10.26,10.26,0,0,0,61.5,92a6.08,6.08,0,0,1,1.84-2c.25,0,.38.14.6.37a2.44,2.44,0,0,0,.29.27.37.37,0,0,0,.18.08,2.89,2.89,0,0,1,1.45.64h0a1,1,0,0,1,0,.59v.12a1.18,1.18,0,0,0,.51.8l.13.12a.45.45,0,0,0,.08.48.91.91,0,0,1,.13.26.38.38,0,0,0,0,.15.51.51,0,0,0,.09.46,2.6,2.6,0,0,1,0,1.11,7.62,7.62,0,0,0,0,1.17V98c0,.57,0,1.52.06,2.1a.33.33,0,0,0,.26.3.36.36,0,0,0,.38-.14,2.76,2.76,0,0,0,.3-.68,2,2,0,0,1,.15-.41h0a.54.54,0,0,0,.14-.16.73.73,0,0,0,0-.36h0l.1-.09a.61.61,0,0,0,.26-.31c.17-.35.32-.73.46-1.1s.22-.6.36-.89a.5.5,0,0,0,.18-.23.76.76,0,0,0,.1-.39l.08-.06a.71.71,0,0,1,.14-.1.37.37,0,0,0,.18-.21c.06-.17.11-.33.15-.46a4.68,4.68,0,0,1,.17-.53,1,1,0,0,0,.18-.32,2,2,0,0,1,.1-.21.06.06,0,0,0,0-.06h.06c.09-.06.19-.12.21-.18A.87.87,0,0,0,71,93a.18.18,0,0,0,.08-.11.52.52,0,0,1,.11-.1,1.25,1.25,0,0,0,.23-.23.35.35,0,0,0,.05-.08,4.15,4.15,0,0,0,.11-.48,2.36,2.36,0,0,1,.1-.38,4.61,4.61,0,0,1,.52-1.07.51.51,0,0,0,.31-.36v-.13a.65.65,0,0,0,.13-.16,1.62,1.62,0,0,0,.17-.48v-.11a.47.47,0,0,0,.29-.35,1,1,0,0,1,.23-.4,3.19,3.19,0,0,0,.3-.42.21.21,0,0,0,0-.11V88a.76.76,0,0,1,.15-.41.4.4,0,0,0,.22-.32c.06-.13.21-.42.31-.59a.47.47,0,0,0,.24-.24,1.34,1.34,0,0,0,.15-.48V85.8a.6.6,0,0,0,.39-.27,2,2,0,0,0,.19-.48.4.4,0,0,1,.09-.27.6.6,0,0,1,.14-.21,1.19,1.19,0,0,0,.16-.23A3.72,3.72,0,0,0,75.9,84a3.47,3.47,0,0,1,.48-.72c.7.21,1.33.45,2,.7l1.37.51a.5.5,0,0,0-.09.23A.67.67,0,0,0,80,85a.33.33,0,0,1,0,.24.36.36,0,0,0,.12.31.35.35,0,0,0,.31.07l.43-.11a.49.49,0,0,0,.14-.11h.14a1.75,1.75,0,0,0,.56-.18l.1-.06a2,2,0,0,0,.35,0h.09a.36.36,0,0,0,.31-.12A1.52,1.52,0,0,1,83,85a3.82,3.82,0,0,0,.66-.12.4.4,0,0,0,.18-.1,2.47,2.47,0,0,0,.36-.11,3.74,3.74,0,0,1,.45-.12,8.13,8.13,0,0,1,.84-.13,6,6,0,0,0,.85-.12c1-.15,2.15-.28,3.27-.36a14.68,14.68,0,0,0,1.75-.11,23.37,23.37,0,0,1,5.79,0,.4.4,0,0,0,.21.09.77.77,0,0,0,.37,0,4,4,0,0,1,.62.11,6.81,6.81,0,0,1,1,.2.36.36,0,0,0,.25.24l.35.08a2.17,2.17,0,0,1,.42.11.37.37,0,0,0,.12.2.31.31,0,0,0,.25,0,.41.41,0,0,0,.18,0h0a3.87,3.87,0,0,1,1.15-.37.39.39,0,0,0,.25-.1l.11-.11.12-.11a.67.67,0,0,0,.3-.19,1.1,1.1,0,0,0,.35-.11l.16-.06a1.56,1.56,0,0,0,.37-.1l.37-.08a.41.41,0,0,0,.29-.16h.07a2.53,2.53,0,0,0,.55-.09h.1a.89.89,0,0,1,.28-.07h.22a3.29,3.29,0,0,0,.39-.17,9.4,9.4,0,0,0,1.28-.27.37.37,0,0,0,.2-.09h1.6a4.26,4.26,0,0,1,1.06-.17h.55a3.87,3.87,0,0,1,1.27,0l.69.07a23.22,23.22,0,0,1,3.71.55,12.84,12.84,0,0,1,2,.8.74.74,0,0,0,.34.15h0a.45.45,0,0,0,.26.28.43.43,0,0,0,.27.06l.09.09a4.11,4.11,0,0,1,.53.57v.16a1.67,1.67,0,0,0,.23.61c0,.11.08.22.11.33a6.34,6.34,0,0,0,.23.74h0a.44.44,0,0,0,.12.15A3.37,3.37,0,0,1,121,88c.07.21.16.42.25.62a.49.49,0,0,1,.1.26v.21a.86.86,0,0,1,0,.45.68.68,0,0,0,0-.14Z" transform="translate(0 0)"/></svg>